<svg width="32" height="32" viewBox="0 0 32 32" fill="none" xmlns="http://www.w3.org/2000/svg">
  <path fill-rule="evenodd" clip-rule="evenodd" d="M32.0001 16.3639C32.0001 15.2293 31.8962 14.1384 31.7032 13.0912H16.3268V19.2802H25.1133C24.7349 21.2802 23.5846 22.9747 21.8555 24.1092V28.1237H27.1319C30.219 25.3383 32.0001 21.2365 32.0001 16.3639Z" fill="#4285F4"/>
  <path fill-rule="evenodd" clip-rule="evenodd" d="M16.3281 32.0003C20.7362 32.0003 24.4319 30.5675 27.1332 28.1239L21.8568 24.1094C20.3949 25.0694 18.5247 25.6367 16.3281 25.6367C12.0758 25.6367 8.47662 22.8222 7.19277 19.0404H1.73828V23.1858C4.42471 28.4148 9.94599 32.0003 16.3281 32.0003Z" fill="#34A853"/>
  <path fill-rule="evenodd" clip-rule="evenodd" d="M7.19102 19.0404C6.86449 18.0804 6.67896 17.055 6.67896 16.0004C6.67896 14.9459 6.86449 13.9205 7.19102 12.9605V8.81506H1.73653C0.630791 10.975 0 13.4186 0 16.0004C0 18.5822 0.630791 21.0258 1.73653 23.1858L7.19102 19.0404Z" fill="#FBBC05"/>
  <path fill-rule="evenodd" clip-rule="evenodd" d="M16.3281 6.36356C18.7251 6.36356 20.8772 7.17082 22.5692 8.75626L27.2519 4.16722C24.4245 1.58544 20.7288 0 16.3281 0C9.94599 0 4.42471 3.58541 1.73828 8.81444L7.19277 12.9598C8.47662 9.17807 12.0758 6.36356 16.3281 6.36356Z" fill="#EA4335"/>
</svg>
