<svg width="200" height="70" viewBox="0 0 200 70" fill="none" xmlns="http://www.w3.org/2000/svg">
<path d="M179.125 51.8715C179.849 51.901 180.44 51.7089 180.898 51.2952C181.371 50.8963 181.74 50.3644 182.006 49.6995C182.272 49.0346 182.457 48.2884 182.56 47.461C182.664 46.6483 182.715 45.8431 182.715 45.0452V41.4326C182.715 40.5757 182.811 39.763 183.004 38.9947C183.21 38.2264 183.521 37.5098 183.934 36.8449C184.348 36.18 184.865 35.5889 185.486 35.0718C186.121 34.5399 186.875 34.0892 187.746 33.7199C187.037 33.4244 186.409 33.0697 185.863 32.656C185.316 32.2423 184.843 31.7843 184.444 31.2819C183.853 30.5431 183.417 29.7231 183.137 28.8218C182.856 27.9057 182.715 26.9379 182.715 25.9184V22.3059C182.715 21.508 182.693 20.7027 182.649 19.8901C182.619 19.0626 182.494 18.3165 182.272 17.6516C182.051 16.9867 181.696 16.4548 181.208 16.0559C180.721 15.6421 180.026 15.4501 179.125 15.4796L179.879 12C181.46 12 182.789 12.3251 183.868 12.9752C184.947 13.6105 185.826 14.4675 186.505 15.5461C187.155 16.5213 187.613 17.6147 187.879 18.8262C188.16 20.0231 188.301 21.1829 188.301 22.3059V25.9184C188.301 26.7459 188.374 27.4772 188.522 28.1126C188.685 28.7479 188.928 29.2872 189.254 29.7305C189.682 30.3363 190.28 30.7796 191.049 31.0603C191.832 31.341 192.77 31.4814 193.863 31.4814V35.914C192.637 35.914 191.618 36.0913 190.805 36.4459C189.992 36.7858 189.379 37.3398 188.965 38.1082C188.744 38.5219 188.574 39.0095 188.456 39.5709C188.352 40.1176 188.301 40.7382 188.301 41.4326V45.0452C188.301 46.1977 188.131 47.3945 187.791 48.6356C187.451 49.8768 186.949 50.9849 186.284 51.9601C185.619 52.9796 184.747 53.7996 183.668 54.4202C182.605 55.0556 181.341 55.3732 179.879 55.3732L179.125 51.8715Z" fill="#6C235E"/>
<path d="M148.281 42.4521H162.399V47.3945H139.859V43.5824L153.29 28.4229H140.169V23.414H161.845V27.1152L148.281 42.4521Z" fill="#8AABFF"/>
<path d="M117.149 17.5408V23.414H126.103V27.9574H117.149V38.2633C117.149 39.135 117.245 39.8664 117.437 40.4574C117.644 41.0337 117.932 41.4917 118.302 41.8316C118.671 42.1862 119.114 42.4373 119.631 42.5851C120.163 42.7329 120.754 42.8067 121.404 42.8067C121.877 42.8067 122.357 42.7846 122.845 42.7402C123.347 42.6959 123.828 42.6368 124.286 42.5629C124.729 42.5038 125.143 42.4373 125.527 42.3635C125.926 42.2896 126.265 42.2157 126.546 42.1418L127.145 46.375C126.716 46.6262 126.214 46.8478 125.638 47.0399C125.061 47.2172 124.448 47.3649 123.798 47.4831C123.148 47.6014 122.468 47.69 121.759 47.7491C121.065 47.823 120.377 47.8599 119.698 47.8599C118.383 47.8599 117.186 47.69 116.107 47.3502C115.044 46.9956 114.135 46.4489 113.381 45.7101C112.613 44.9861 112.022 44.0626 111.608 42.9397C111.195 41.802 110.988 40.4427 110.988 38.8617V27.9574H105.513V23.414H110.988V17.5408H117.149Z" fill="#8AABFF"/>
<path d="M86.7926 40.8121C86.7926 40.4427 86.7039 40.1176 86.5266 39.8369C86.3641 39.5562 86.0686 39.2902 85.6401 39.039C85.1968 38.8026 84.6132 38.581 83.8892 38.3741C83.1652 38.1673 82.2491 37.9604 81.141 37.7536C79.7373 37.4728 78.4518 37.1256 77.2846 36.7119C76.1321 36.2834 75.1422 35.7663 74.3147 35.1605C73.4873 34.5695 72.8372 33.8824 72.3644 33.0993C71.9063 32.3162 71.6773 31.4149 71.6773 30.3954C71.6773 29.4055 71.9137 28.4598 72.3865 27.5585C72.8593 26.6572 73.539 25.8667 74.4255 25.1871C75.3121 24.5074 76.3907 23.9681 77.6614 23.5692C78.932 23.1702 80.3653 22.9708 81.961 22.9708C83.6306 22.9708 85.1303 23.1702 86.4601 23.5692C87.7899 23.9533 88.9202 24.4852 89.8511 25.1649C90.7671 25.8594 91.469 26.6794 91.9566 27.625C92.4442 28.5706 92.688 29.5975 92.688 30.7057H86.5266C86.5266 30.3068 86.4601 29.9374 86.3271 29.5975C86.1942 29.2429 85.9947 28.9253 85.7287 28.6445C85.3594 28.2751 84.857 27.9796 84.2216 27.758C83.6011 27.5364 82.8475 27.4256 81.961 27.4256C81.2075 27.4256 80.55 27.4994 79.9885 27.6472C79.427 27.7949 78.969 28.0018 78.6144 28.2677C78.2893 28.5042 78.0381 28.7849 77.8608 29.1099C77.6983 29.4202 77.617 29.7527 77.617 30.1073C77.617 30.4619 77.6909 30.7943 77.8387 31.1046C77.9864 31.4001 78.2524 31.6661 78.6365 31.9025C79.0059 32.1537 79.5157 32.3827 80.1658 32.5896C80.8159 32.7816 81.6433 32.9516 82.6481 33.0993C84.0961 33.3357 85.4406 33.6386 86.6817 34.008C87.9229 34.3774 88.9941 34.8502 89.8954 35.4264C90.7967 36.0175 91.4985 36.7341 92.0009 37.5763C92.518 38.4037 92.7766 39.3936 92.7766 40.5461C92.7766 41.6099 92.518 42.5925 92.0009 43.4938C91.4985 44.3803 90.7819 45.1487 89.8511 45.7988C88.9054 46.4489 87.7677 46.9586 86.438 47.328C85.1082 47.6826 83.6232 47.86 81.9832 47.86C80.1806 47.86 78.5848 47.6235 77.1959 47.1507C75.8218 46.6779 74.6693 46.0573 73.7385 45.289C72.8076 44.5355 72.0984 43.6785 71.6108 42.7181C71.138 41.7429 70.9016 40.7677 70.9016 39.7926H76.7748C76.8192 40.4427 76.9965 41.0042 77.3067 41.477C77.617 41.935 78.016 42.3044 78.5036 42.5851C78.9912 42.8806 79.5452 43.0949 80.1658 43.2279C80.8011 43.3608 81.4513 43.4273 82.1161 43.4273C82.914 43.4273 83.6085 43.3608 84.1995 43.2279C84.8053 43.0801 85.3002 42.888 85.6844 42.6516C86.0538 42.4152 86.3271 42.1419 86.5044 41.8316C86.6965 41.5213 86.7926 41.1815 86.7926 40.8121Z" fill="#8AABFF"/>
<path d="M40.4789 23.414H52.7573V47.9486C52.7573 49.5443 52.5282 50.9111 52.0702 52.0488C51.6122 53.2012 50.9473 54.1469 50.0755 54.8857C49.2038 55.6392 48.1399 56.1933 46.884 56.5479C45.6281 56.9025 44.1949 57.0798 42.5844 57.0798C42.2002 57.0798 41.8087 57.0724 41.4097 57.0576C41.0256 57.0429 40.6414 57.0133 40.2573 56.969C39.9765 56.9394 39.6958 56.9025 39.4151 56.8582C39.1491 56.8138 38.8831 56.7621 38.6172 56.703L38.9275 51.6942C39.1048 51.7385 39.3486 51.7754 39.6589 51.805C39.9839 51.8493 40.3164 51.8789 40.6562 51.8936C40.9813 51.9232 41.2915 51.938 41.587 51.938C41.8973 51.9527 42.1264 51.9601 42.2741 51.9601C42.8651 51.9601 43.4192 51.8936 43.9363 51.7607C44.4683 51.6277 44.9263 51.406 45.3105 51.0958C45.6798 50.7855 45.9753 50.3718 46.197 49.8546C46.4186 49.3523 46.5294 48.7169 46.5294 47.9486V28.445H40.4789V23.414ZM46.1083 17.2748C46.1083 16.3588 46.4186 15.583 47.0392 14.9477C47.6745 14.3124 48.5389 13.9947 49.6323 13.9947C50.7256 13.9947 51.59 14.305 52.2253 14.9255C52.8755 15.5313 53.2005 16.3144 53.2005 17.2748C53.2005 18.2352 52.8755 19.0257 52.2253 19.6463C51.59 20.2521 50.7256 20.555 49.6323 20.555C48.5684 20.555 47.7115 20.2447 47.0613 19.6241C46.426 19.0036 46.1083 18.2205 46.1083 17.2748Z" fill="#8AABFF"/>
<path d="M19.9849 55.3732C18.5222 55.3732 17.2515 55.0482 16.1729 54.3981C15.109 53.7627 14.2447 52.9574 13.5798 51.9823C12.8706 50.9628 12.3534 49.8398 12.0284 48.6135C11.7181 47.4019 11.5629 46.2125 11.5629 45.0452V41.4326C11.5629 39.4675 11.1049 38.0564 10.1888 37.1995C9.27275 36.3425 7.87648 35.914 6 35.914V31.4814C7.87648 31.4814 9.27275 31.0529 10.1888 30.1959C11.1049 29.3389 11.5629 27.9131 11.5629 25.9184V22.3059C11.5629 21.0499 11.7402 19.7571 12.0949 18.4273C12.4495 17.0827 13.0109 15.9155 13.7793 14.9255C14.4146 14.0686 15.2494 13.3667 16.2837 12.82C17.318 12.2733 18.5517 12 19.9849 12L20.7385 15.4796C19.8372 15.4501 19.1427 15.6421 18.6551 16.0559C18.1676 16.4548 17.8129 16.9867 17.5913 17.6516C17.3697 18.3165 17.2367 19.0626 17.1924 19.8901C17.1628 20.7027 17.1481 21.508 17.1481 22.3059V25.9184C17.1481 27.6767 16.7122 29.2355 15.8404 30.5949C14.9835 31.9542 13.6463 32.9885 11.8289 33.6977C13.6611 34.4069 15.0056 35.4338 15.8626 36.7784C16.7196 38.1229 17.1481 39.6744 17.1481 41.4326V45.0452C17.1481 45.8431 17.1924 46.6483 17.281 47.461C17.3845 48.2884 17.5692 49.0346 17.8351 49.6995C18.1011 50.3644 18.4631 50.8963 18.9211 51.2952C19.3939 51.7089 19.9997 51.901 20.7385 51.8715L19.9849 55.3732Z" fill="#6C235E"/>
</svg>
